<?xml version="1.0" standalone="no"?>
<!DOCTYPE svg PUBLIC "-//W3C//DTD SVG 20010904//EN"
 "http://www.w3.org/TR/2001/REC-SVG-20010904/DTD/svg10.dtd">
<svg version="1.0" xmlns="http://www.w3.org/2000/svg"
 width="526.000000pt" height="336.000000pt" viewBox="0 0 526.000000 336.000000"
 preserveAspectRatio="xMidYMid meet">

<g transform="translate(0.000000,336.000000) scale(0.100000,-0.100000)"
fill="#000000" stroke="none">
<path d="M250 1735 l0 -1485 380 0 380 0 0 60 0 60 -315 0 -315 0 0 1360 0
1360 2260 0 2260 0 0 -1360 0 -1360 -315 0 -315 0 0 -60 0 -60 380 0 380 0 0
1485 0 1485 -2390 0 -2390 0 0 -1485z"/>
<path d="M1004 2390 c-153 -49 -290 -182 -346 -337 -32 -88 -37 -241 -10 -330
53 -173 175 -301 346 -361 94 -33 238 -35 336 -3 244 78 405 329 372 580 -28
211 -187 395 -391 455 -77 23 -229 20 -307 -4z m275 -109 c84 -26 141 -62 196
-123 192 -213 127 -545 -131 -668 -88 -43 -209 -53 -295 -25 -113 36 -212 123
-265 230 -27 56 -29 68 -29 175 0 111 1 118 34 185 94 190 300 285 490 226z"/>
<path d="M3415 2284 c-69 -24 -135 -83 -174 -154 -33 -60 -36 -71 -36 -150 0
-70 5 -94 25 -135 54 -110 168 -185 280 -185 28 0 50 -4 50 -9 0 -11 -142
-131 -222 -187 l-57 -41 38 -46 38 -45 89 66 c194 146 334 305 384 439 26 69
29 188 7 250 -34 93 -113 170 -206 201 -46 16 -167 14 -216 -4z m183 -110
c139 -58 176 -242 69 -345 -32 -31 -96 -59 -138 -59 -54 0 -139 48 -174 98
-26 37 -30 53 -30 106 0 87 38 150 114 189 62 31 105 34 159 11z"/>
<path d="M4182 2269 c-75 -37 -134 -102 -163 -178 -30 -80 -24 -186 16 -259
55 -102 147 -162 258 -170 37 -3 66 -8 65 -13 -5 -14 -142 -129 -210 -176
l-67 -46 19 -26 c11 -14 27 -36 37 -48 l18 -23 120 94 c207 160 339 325 366
455 36 172 -29 319 -173 391 -53 26 -72 30 -143 30 -71 0 -90 -4 -143 -31z
m202 -90 c74 -20 146 -119 146 -200 0 -70 -50 -153 -109 -184 -75 -38 -163
-26 -230 31 -112 96 -88 268 48 337 59 29 86 33 145 16z"/>
<path d="M2189 1895 c-25 -13 -67 -47 -91 -74 l-45 -50 -7 69 -7 70 -100 0
-99 0 0 -54 0 -55 48 -3 47 -3 3 -167 2 -168 -60 0 -60 0 0 -55 0 -55 165 0
165 0 0 55 0 55 -45 0 -45 0 0 105 c0 112 8 142 52 182 28 27 89 53 121 53 21
0 25 6 31 46 11 86 5 91 -75 49z"/>
<path d="M2594 1909 c-52 -15 -126 -71 -160 -122 -81 -117 -61 -280 45 -376
86 -78 237 -99 340 -47 l54 27 -5 -84 c-7 -102 -28 -150 -80 -185 -61 -40
-128 -41 -202 -4 l-59 30 -26 -31 c-55 -65 -55 -63 -6 -92 70 -41 122 -55 199
-55 118 0 215 61 268 168 22 46 23 56 26 355 l4 307 54 0 54 0 0 55 0 55 -104
0 c-110 0 -116 -3 -116 -51 0 -18 -4 -17 -38 11 -21 17 -54 35 -73 40 -41 12
-132 12 -175 -1z m177 -125 c38 -19 77 -69 89 -114 30 -110 -56 -219 -173
-220 -122 0 -205 103 -177 219 28 114 153 170 261 115z"/>
</g>
</svg>
